HIERARCHY
ROOT Hips
{
	OFFSET 0.000000 0.000000 0.000000
	CHANNELS 6 Xposition Yposition Zposition Xrotation Yrotation Zrotation
	JOINT LeftUpLeg_virtual
	{
		OFFSET 0.000000 0.000000 0.000000
		CHANNELS 3 Xrotation Yrotation Zrotation
		JOINT LeftUpLeg
		{
			OFFSET 11.394100 -6.187798 -0.413800
			CHANNELS 3 Xrotation Yrotation Zrotation
			JOINT LeftLeg
			{
				OFFSET 0.430247 -32.302673 3.732800
				CHANNELS 3 Xrotation Yrotation Zrotation
				JOINT LeftFoot
				{
					OFFSET -0.430247 -48.264931 -6.423300
					CHANNELS 3 Xrotation Yrotation Zrotation
					JOINT LeftToeBase
					{
						OFFSET 4.230900 -16.068199 23.438400
						CHANNELS 3 Xrotation Yrotation Zrotation
						JOINT LeftToe_End
						{
							OFFSET 4.510700 0.695400 19.974600
							CHANNELS 3 Xrotation Yrotation Zrotation
							End Site
							{
								OFFSET 0 0 0
							}
						}
					}
				}
			}
		}
	}
	JOINT RightUpLeg_virtual
	{
		OFFSET 0.000000 0.000000 0.000000
		CHANNELS 3 Xrotation Yrotation Zrotation
		JOINT RightUpLeg
		{
			OFFSET -11.333700 -6.187798 -0.413800
			CHANNELS 3 Xrotation Yrotation Zrotation
			JOINT RightLeg
			{
				OFFSET -0.430392 -32.302628 3.733000
				CHANNELS 3 Xrotation Yrotation Zrotation
				JOINT RightFoot
				{
					OFFSET 0.430392 -48.264973 -6.423500
					CHANNELS 3 Xrotation Yrotation Zrotation
					JOINT RightToeBase
					{
						OFFSET -4.230900 -16.068199 23.438400
						CHANNELS 3 Xrotation Yrotation Zrotation
						JOINT RightToe_End
						{
							OFFSET -4.510700 0.695400 19.974600
							CHANNELS 3 Xrotation Yrotation Zrotation
							End Site
							{
								OFFSET 0 0 0
							}
						}
					}
				}
			}
		}
	}
	JOINT Spine_virtual
	{
		OFFSET 0.000000 0.000000 0.000000
		CHANNELS 3 Xrotation Yrotation Zrotation
		JOINT Spine
		{
			OFFSET -0.002400 12.777504 0.315300
			CHANNELS 3 Xrotation Yrotation Zrotation
			JOINT Spine1
			{
				OFFSET -0.002067 5.816869 0.032633
				CHANNELS 3 Xrotation Yrotation Zrotation
				JOINT Spine1_split
				{
					OFFSET -0.002067 5.816869 0.032633
					CHANNELS 3 Xrotation Yrotation Zrotation
					JOINT Spine2
					{
						OFFSET -0.002067 5.816869 0.032633
						CHANNELS 3 Xrotation Yrotation Zrotation
						JOINT Neck_virtual
						{
							OFFSET 0.000000 0.000000 0.000000
							CHANNELS 3 Xrotation Yrotation Zrotation
							JOINT Neck
							{
								OFFSET -0.003700 21.199493 -0.826900
								CHANNELS 3 Xrotation Yrotation Zrotation
								JOINT Head
								{
									OFFSET 0.000000 20.442200 4.834800
									CHANNELS 3 Xrotation Yrotation Zrotation
									JOINT HeadTop_End
									{
										OFFSET 0.000000 34.668396 4.968400
										CHANNELS 3 Xrotation Yrotation Zrotation
										End Site
										{
											OFFSET 0 0 0
										}
									}
								}
							}
						}
						JOINT LeftShoulder_virtual
						{
							OFFSET 0.000000 0.000000 0.000000
							CHANNELS 3 Xrotation Yrotation Zrotation
							JOINT LeftShoulder
							{
								OFFSET 3.288150 8.794197 -1.372250
								CHANNELS 3 Xrotation Yrotation Zrotation
								JOINT LeftShoulder_split
								{
									OFFSET 3.288150 8.794197 -1.372250
									CHANNELS 3 Xrotation Yrotation Zrotation
									JOINT LeftArm
									{
										OFFSET 11.953299 -2.279007 -0.146200
										CHANNELS 3 Xrotation Yrotation Zrotation
										JOINT LeftForeArm
										{
											OFFSET 18.448900 0.000000 0.000000
											CHANNELS 3 Xrotation Yrotation Zrotation
											JOINT LeftHand
											{
												OFFSET 29.527798 0.000000 0.000000
												CHANNELS 3 Xrotation Yrotation Zrotation
												End Site
												{
													OFFSET 0 0 0
												}
											}
										}
									}
								}
							}
						}
						JOINT RightShoulder_virtual
						{
							OFFSET 0.000000 0.000000 0.000000
							CHANNELS 3 Xrotation Yrotation Zrotation
							JOINT RightShoulder
							{
								OFFSET -3.249400 8.794197 -1.372250
								CHANNELS 3 Xrotation Yrotation Zrotation
								JOINT RightShoulder_split
								{
									OFFSET -3.249400 8.794197 -1.372250
									CHANNELS 3 Xrotation Yrotation Zrotation
									JOINT RightArm
									{
										OFFSET -11.953299 -2.279007 -0.146200
										CHANNELS 3 Xrotation Yrotation Zrotation
										JOINT RightForeArm
										{
											OFFSET -18.448900 0.000000 0.000000
											CHANNELS 3 Xrotation Yrotation Zrotation
											JOINT RightHand
											{
												OFFSET -29.527802 0.000000 0.000000
												CHANNELS 3 Xrotation Yrotation Zrotation
												End Site
												{
													OFFSET 0 0 0
												}
											}
										}
									}
								}
							}
						}
					}
				}
			}
		}
	}
}
MOTION
Frames: 8
Frame Time: 0.03333333
-0.246192 100.986755 0.315529 0.000000 0.000000 0.000000 -3.062256 -4.749309 -3.792406 -12.864069 12.528384 13.240466 13.954503 3.599035 2.789033 1.807774 0.647567 -8.105110 -0.154865 0.251351 -2.070933 0.000000 0.000000 0.000000 -2.485065 -3.341504 -3.999174 -1.009912 -8.041941 1.317619 9.797373 -7.988154 -3.781595 -0.518118 -0.649853 1.104624 -6.992341 -0.221060 0.023065 0.000000 0.000000 0.000000 -2.964164 -4.387579 -4.328909 2.679570 0.513908 3.288968 1.679089 -0.016384 1.813611 1.120544 -0.462164 0.017746 0.000000 0.000000 0.000000 1.311372 0.452727 1.656548 6.163149 1.165119 -0.069916 -5.345460 0.705996 -0.954864 0.000000 0.000000 0.000000 1.058640 0.600339 1.438488 1.730133 -15.368846 -12.549546 -2.624648 -0.369098 -1.527766 8.610958 -20.253186 -68.095647 -1.817981 -2.590107 0.030634 0.000000 0.000000 0.000000 1.414689 0.507175 1.639365 1.898650 12.101834 15.589977 0.273550 2.533570 -0.927812 12.337406 28.335841 57.250895 0.514548 11.297096 0.816436 0.000000 0.000000 0.000000 
-0.159914 100.994781 0.333530 0.000000 0.000000 0.000000 -3.061231 -4.917463 -3.769714 -12.854343 12.471228 13.225380 14.053118 3.620944 2.752783 1.721671 0.658991 -8.145569 -0.186819 0.252171 -2.084271 0.000000 0.000000 0.000000 -2.475785 -3.450220 -3.971983 -0.971109 -8.152795 1.318420 9.719305 -7.857934 -3.826970 -0.434089 -0.714184 1.087331 -6.915164 -0.283954 0.112668 0.000000 0.000000 0.000000 -2.964718 -4.550066 -4.353400 2.697610 0.496906 3.299005 1.670108 -0.030952 1.820320 1.094569 -0.430781 0.007703 0.000000 0.000000 0.000000 1.315755 0.454792 1.656418 6.188252 1.198692 -0.039778 -5.385749 0.786272 -0.968574 0.000000 0.000000 0.000000 1.086379 0.584285 1.454097 1.720487 -15.428316 -12.551643 -2.618587 -0.460541 -1.571665 8.532645 -20.259702 -68.157249 -1.824951 -2.652510 0.034786 0.000000 0.000000 0.000000 1.408822 0.497532 1.660353 1.879763 12.132637 15.648351 0.193435 2.526412 -0.915182 12.414484 28.349045 57.156239 0.534462 11.078243 0.851073 0.000000 0.000000 0.000000 
-0.086517 101.004929 0.336468 0.000000 0.000000 0.000000 -3.101774 -5.209976 -3.769644 -12.866435 12.430160 13.284921 14.286979 3.688708 2.701240 1.560938 0.679981 -8.219442 -0.216177 0.256305 -2.111233 0.000000 0.000000 0.000000 -2.531322 -3.608564 -3.964620 -0.926437 -8.336340 1.343810 9.684529 -7.566976 -3.878686 -0.507451 -0.859490 1.079789 -6.803536 -0.335596 0.183370 0.000000 0.000000 0.000000 -3.000374 -4.814374 -4.389532 2.733944 0.485772 3.333396 1.663689 -0.051845 1.822602 1.061548 -0.404116 -0.002192 0.000000 0.000000 0.000000 1.316583 0.448295 1.651968 6.228301 1.254839 -0.011616 -5.450702 0.946234 -1.040159 0.000000 0.000000 0.000000 1.113785 0.563982 1.466420 1.704896 -15.500179 -12.561026 -2.540572 -0.525203 -1.626238 8.480686 -20.154507 -68.233761 -1.811927 -2.712127 0.038707 0.000000 0.000000 0.000000 1.395025 0.483971 1.682848 1.862831 12.230156 15.683918 0.088703 2.528909 -0.910301 12.550773 28.326193 57.018030 0.511296 10.885226 0.917057 0.000000 0.000000 0.000000 
-0.035758 101.016541 0.323177 0.000000 0.000000 0.000000 -3.179918 -5.567352 -3.783818 -12.891965 12.408201 13.400377 14.585405 3.811181 2.637073 1.356670 0.707513 -8.315018 -0.224340 0.263489 -2.143792 0.000000 0.000000 0.000000 -2.633595 -3.811946 -3.969047 -0.905350 -8.581302 1.389028 9.728476 -7.121939 -3.920770 -0.655090 -1.065411 1.127679 -6.721954 -0.373782 0.222409 0.000000 0.000000 0.000000 -3.061473 -5.154070 -4.431893 2.784082 0.481811 3.387588 1.662044 -0.071683 1.821216 1.042799 -0.394892 0.012736 0.000000 0.000000 0.000000 1.310765 0.438222 1.643858 6.271348 1.323231 0.014835 -5.532442 1.154067 -1.146406 0.000000 0.000000 0.000000 1.140318 0.543122 1.475090 1.681605 -15.578724 -12.575585 -2.437504 -0.514043 -1.683921 8.459804 -19.923494 -68.295813 -1.789428 -2.742077 0.042369 0.000000 0.000000 0.000000 1.380774 0.468573 1.702684 1.848143 12.382097 15.682189 -0.010075 2.530760 -0.907256 12.737814 28.320384 56.854133 0.465221 10.746819 0.991443 0.000000 0.000000 0.000000 
-0.001716 101.019012 0.285229 0.000000 0.000000 0.000000 -3.283627 -5.942549 -3.809243 -12.915611 12.403180 13.550730 14.885716 3.992158 2.565196 1.150295 0.733526 -8.421456 -0.213936 0.270352 -2.168491 0.000000 0.000000 0.000000 -2.759060 -4.053332 -3.980645 -0.908538 -8.865781 1.458405 9.826434 -6.534395 -3.962089 -0.837598 -1.325582 1.242209 -6.766991 -0.402552 0.214496 0.000000 0.000000 0.000000 -3.143849 -5.553407 -4.477052 2.843001 0.487356 3.454894 1.666816 -0.083847 1.818258 1.043295 -0.407198 0.033901 0.000000 0.000000 0.000000 1.300215 0.431505 1.632010 6.305559 1.395033 0.042293 -5.618983 1.368613 -1.253282 0.000000 0.000000 0.000000 1.169014 0.526743 1.480399 1.653885 -15.658639 -12.580508 -2.320024 -0.422418 -1.745580 8.440309 -19.604229 -68.327184 -1.769039 -2.742306 0.042729 0.000000 0.000000 0.000000 1.374110 0.457279 1.717104 1.836264 12.571931 15.625598 -0.115293 2.516053 -0.896975 12.977844 28.396459 56.665742 0.422497 10.686310 1.050762 0.000000 0.000000 0.000000 
0.024239 101.013016 0.247440 0.000000 0.000000 0.000000 -3.395321 -6.296973 -3.841491 -12.916562 12.407213 13.710934 15.149855 4.219699 2.492424 0.984026 0.745539 -8.532281 -0.215790 0.275533 -2.169203 0.000000 0.000000 0.000000 -2.881855 -4.312236 -3.995133 -0.919164 -9.168520 1.554753 9.965845 -5.848613 -4.013104 -1.066090 -1.651978 1.370147 -6.912534 -0.428212 0.170194 0.000000 0.000000 0.000000 -3.246751 -5.979325 -4.523263 2.905215 0.501183 3.528399 1.678499 -0.082014 1.817148 1.047734 -0.454156 0.064619 0.000000 0.000000 0.000000 1.288926 0.434224 1.619039 6.332583 1.462021 0.066155 -5.692890 1.535709 -1.336237 0.000000 0.000000 0.000000 1.203504 0.517750 1.483558 1.626117 -15.730189 -12.564859 -2.215993 -0.274092 -1.836735 8.409450 -19.242815 -68.323769 -1.756306 -2.712310 0.040050 0.000000 0.000000 0.000000 1.376591 0.454032 1.727316 1.825682 12.782813 15.513520 -0.209179 2.493488 -0.875415 13.246132 28.576115 56.484121 0.403299 10.711808 1.074185 0.000000 0.000000 0.000000 
0.046439 101.015495 0.222252 0.000000 0.000000 0.000000 -3.516964 -6.652378 -3.873597 -12.880999 12.415123 13.872624 15.369474 4.482969 2.431532 0.887830 0.733412 -8.646035 -0.241075 0.278779 -2.142871 0.000000 0.000000 0.000000 -2.997238 -4.615391 -4.009210 -0.950980 -9.476347 1.676396 10.137917 -5.123015 -4.070847 -1.323787 -2.058930 1.439486 -7.055458 -0.454066 0.112291 0.000000 0.000000 0.000000 -3.375809 -6.413452 -4.570781 2.965662 0.518963 3.598338 1.693682 -0.067751 1.821018 1.044824 -0.534454 0.078972 0.000000 0.000000 0.000000 1.278819 0.447131 1.606915 6.362576 1.518961 0.088130 -5.748572 1.618886 -1.389111 0.000000 0.000000 0.000000 1.245331 0.515177 1.486171 1.606940 -15.789367 -12.512774 -2.146918 -0.078268 -1.934092 8.360862 -18.870173 -68.303094 -1.747766 -2.649192 0.034515 0.000000 0.000000 0.000000 1.393141 0.460663 1.739609 1.822826 13.000757 15.363720 -0.307568 2.465863 -0.840015 13.481941 28.804950 56.327443 0.406455 10.861278 1.055349 0.000000 0.000000 0.000000 
0.071619 101.032494 0.207401 0.000000 0.000000 0.000000 -3.633842 -7.049640 -3.903577 -12.808908 12.414519 14.031414 15.546991 4.781053 2.392487 0.852913 0.705336 -8.748407 -0.268959 0.277245 -2.097913 0.000000 0.000000 0.000000 -3.113516 -4.956752 -4.024273 -1.018611 -9.782618 1.810147 10.340897 -4.382761 -4.130859 -1.561582 -2.539372 1.436235 -7.127129 -0.484093 0.070161 0.000000 0.000000 0.000000 -3.523676 -6.848943 -4.620745 3.017204 0.536880 3.656465 1.703728 -0.043515 1.833481 1.054928 -0.607725 0.066908 0.000000 0.000000 0.000000 1.269081 0.466148 1.602268 6.405122 1.561401 0.101816 -5.782806 1.601166 -1.426463 0.000000 0.000000 0.000000 1.290709 0.517068 1.490215 1.602154 -15.831127 -12.416762 -2.095776 0.107907 -1.997572 8.294978 -18.516725 -68.297855 -1.730348 -2.567212 0.025027 0.000000 0.000000 0.000000 1.426260 0.478209 1.759051 1.826169 13.216270 15.197506 -0.401989 2.421723 -0.771711 13.535882 28.978594 56.243247 0.419654 11.190711 0.999705 0.000000 0.000000 0.000000 
